<svg width="52" height="52" viewBox="0 0 52 52" fill="none" xmlns="http://www.w3.org/2000/svg">
    <path d="M9.95717 17.3529L0 23.2694L2.40189 25.3481L6.98556 27.4202L9.95717 25.6546V17.3529Z"
        fill="white" />
    <path d="M13 15.5475V23.8425L26 16.1205L26.9064 11.9763L26 7.82544L13 15.5475Z" fill="white" />
    <path
        d="M42.043 17.3529V25.6546L45.0146 27.4202L49.3134 26.1743L52.0001 23.2694L42.043 17.3529Z"
        fill="white" />
    <path d="M26 7.82544V16.1205L32.0145 19.6983L36.0543 18.1859L39 15.5475L26 7.82544Z"
        fill="white" />
    <path d="M39 15.5474L13 30.9981L15.8033 33.7764L19.9791 35.1423L39 23.8491V23.8424V15.5474Z"
        fill="white" />
    <path d="M13 39.293L26 47.015L27.1265 42.8708L26 38.72L13 30.9979V39.293Z" fill="white" />
    <path d="M0 31.5713L9.95717 37.4878V29.1861L0 23.2697V31.5713Z" fill="white" />
    <path d="M39 39.293V30.9979L26 38.72V47.015L39 39.293Z" fill="white" />
    <path d="M52.0001 23.2695L42.043 29.186V37.4877L52.0001 31.5712V23.2695Z" fill="white" />
</svg>
    